<?xml version="1.0" encoding="iso-8859-1"?>
<!-- Generator: Adobe Illustrator 23.0.6, SVG Export Plug-In . SVG Version: 6.00 Build 0)  -->
<svg version="1.1" baseProfile="basic" id="&#x421;&#x43B;&#x43E;&#x439;_1"
	 xmlns="http://www.w3.org/2000/svg" xmlns:xlink="http://www.w3.org/1999/xlink" x="0px" y="0px" viewBox="0 0 50 50"
	 xml:space="preserve">
<polygon points="42,8 42,6 40,6 40,4 38,4 36,4 34,4 34,6 32,6 30,6 30,8 30,10 28,10 28,16 22,16 22,10 20,10 20,8 20,6 16,6 16,4 
	12,4 10,4 10,6 8,6 8,8 4,8 4,32 9,32 9,36 13,36 13,41 20,41 20,46 25,46 30,46 30,41 37,41 37,36 41,36 41,32 46,32 46,8 "/>
</svg>