<svg xmlns="http://www.w3.org/2000/svg"  viewBox="0 0 32 32" width="36px" height="36px" baseProfile="basic"><ellipse cx="16" cy="16" fill="#e6a728" rx="15" ry="9"/><path fill="#737087" d="M31,16c0,2.65-1.91,5.03-4.95,6.67c0.88-1.36,0.65-5.17-2.05-5.17c-2.06,0-3.5,2.75-3.5,2.75	S19.78,19.5,19,19.5c-2,0-3,2.5-3,2.5s-1-2.5-3-2.5c-0.78,0-1.5,0.75-1.5,0.75S10.06,17.5,8,17.5c-2.7,0-2.93,3.81-2.05,5.17	C2.91,21.03,1,18.65,1,16c0-3.28,2.93-6.15,7.31-7.72C6.53,10.93,8.03,13.5,11,13.5c1.5,0,3.5-0.5,3.5-3.5c1,1,2,1,3,0	c0,3,2,3.5,3.5,3.5c2.98,0,4.48-2.56,2.7-5.22C28.07,9.85,31,12.72,31,16z"/><path fill="#fff" d="M21,14c-2.241,0-3.606-1.072-3.927-3.044c-0.707,0.393-1.438,0.393-2.146,0	C14.606,12.928,13.241,14,11,14c-1.611,0-2.949-0.709-3.58-1.896c-0.646-1.215-0.47-2.719,0.481-4.127L8.73,8.538	c-0.737,1.091-0.893,2.22-0.427,3.098C8.764,12.503,9.747,13,11,13c2.047,0,3-0.953,3-3V8.793l0.854,0.854	c0.801,0.801,1.492,0.801,2.293,0L18,8.793V10c0,2.047,0.953,3,3,3c1.251,0,2.233-0.496,2.695-1.361	c0.466-0.874,0.314-1.999-0.416-3.088l0.83-0.557c0.943,1.404,1.113,2.904,0.468,4.115C23.946,13.293,22.608,14,21,14z"/><path fill="#fff" d="M16.002,23.34l-0.466-1.153C15.527,22.165,14.633,20,13,20c-0.46,0-0.979,0.431-1.14,0.597	l-0.48,0.496l-0.323-0.61C11.044,20.457,9.732,18,8,18c-0.716,0-1.259,0.331-1.612,0.983c-0.575,1.063-0.48,2.715-0.015,3.427	l-0.837,0.547c-0.644-0.983-0.808-3.007-0.027-4.45C6.035,17.535,6.919,17,8,17c1.753,0,3.057,1.626,3.627,2.493	C11.97,19.253,12.459,19,13,19c1.484,0,2.471,1.112,3,1.938C16.529,20.112,17.516,19,19,19c0.541,0,1.03,0.253,1.373,0.493	C20.943,18.626,22.247,17,24,17c1.081,0,1.965,0.535,2.491,1.507c0.781,1.443,0.616,3.467-0.027,4.45l-0.837-0.547	c0.465-0.712,0.56-2.363-0.015-3.427C25.259,18.331,24.716,18,24,18c-1.732,0-3.044,2.457-3.057,2.482l-0.321,0.61l-0.482-0.496	C19.979,20.431,19.46,20,19,20c-1.643,0-2.527,2.164-2.536,2.186L16.002,23.34z"/><path fill="#302529" d="M16,26C7.028,26,0,21.607,0,16S7.028,6,16,6s16,4.393,16,10S24.972,26,16,26z M16,8	C8.411,8,2,11.663,2,16s6.411,8,14,8s14-3.663,14-8S23.589,8,16,8z"/></svg>